PathFileType	4	(X/Y/Z)	s10c0403.trc
DataRate	CameraRate	NumFrames	NumMarkers	Units	OrigDataRate	OrigDataStartFrame	OrigNumFrames
200	200	4	49	mm	200	250	2000
Frame#	Time	racr			lacr			c7			jug			rlel			rdr			llel			ldr			s2			lic			ric			lasi			rasi			rpsi			lpsi			rgt			lgt			rth1			rth2			rth3			rth4			rlfc			rmfc			rsh1			rsh2			rsh3			rsh4			rlmal			rmmal			rcal			rtoe			rmt5			lth1			lth2			lth4			lth3			llfc			lmfc			llmal			lcal			lmt5			lsh1			lsh2			lsh3			lsh4			ltoe			SBIKE			LBIKE			RBIKE			
		X1	Y1	Z1	X2	Y2	Z2	X3	Y3	Z3	X4	Y4	Z4	X5	Y5	Z5	X6	Y6	Z6	X7	Y7	Z7	X8	Y8	Z8	X9	Y9	Z9	X10	Y10	Z10	X11	Y11	Z11	X12	Y12	Z12	X13	Y13	Z13	X14	Y14	Z14	X15	Y15	Z15	X16	Y16	Z16	X17	Y17	Z17	X18	Y18	Z18	X19	Y19	Z19	X20	Y20	Z20	X21	Y21	Z21	X22	Y22	Z22	X23	Y23	Z23	X24	Y24	Z24	X25	Y25	Z25	X26	Y26	Z26	X27	Y27	Z27	X28	Y28	Z28	X29	Y29	Z29	X30	Y30	Z30	X31	Y31	Z31	X32	Y32	Z32	X33	Y33	Z33	X34	Y34	Z34	X35	Y35	Z35	X36	Y36	Z36	X37	Y37	Z37	X38	Y38	Z38	X39	Y39	Z39	X40	Y40	Z40	X41	Y41	Z41	X42	Y42	Z42	X43	Y43	Z43	X44	Y44	Z44	X45	Y45	Z45	X46	Y46	Z46	X47	Y47	Z47	X48	Y48	Z48	X49	Y49	Z49	
250	1.2500	586.086309	1350.983775	-47.473866	621.667727	1323.172754	-370.623483	575.068837	1387.683205	-210.942573	573.890415	1243.188231	-200.957042	505.721854	1086.532357	13.267871	619.933183	906.124412	-48.697399	507.908416	1093.857304	-510.883948	624.767649	923.746359	-428.080494	50.538074	1181.438110	-210.103667	205.094938	1179.526902	-378.377441	241.701642	1158.146794	-99.605895	213.326704	1092.070812	-354.392699	233.902545	1077.062602	-107.236071	109.505774	1224.041416	-160.595952	105.186731	1240.856162	-272.878358	127.734363	1062.131358	-35.277950	81.283849	1065.597884	-412.372495	168.404739	919.790382	-15.767166	220.252348	849.423856	-34.559376	229.284005	764.882251	-43.382757	252.811877	865.633517	-44.120508	265.660416	668.539365	-61.396553	250.075625	661.747144	-177.827671	169.316746	605.986643	-27.596079	127.365228	528.122333	-38.601524	54.466584	481.766688	-40.994820	150.309862	509.733820	-63.832711	-17.940887	409.454738	-52.715356	13.213513	405.578653	-132.529427	-63.597969	430.759324	-103.908241	87.239125	240.340511	-100.836128	12.705267	282.236808	-39.956637	159.646466	957.831947	-433.163327	237.877496	920.304947	-426.755587	261.359047	947.493831	-420.030526	286.961718	846.216432	-422.305498	372.045270	766.830928	-409.121623	383.952168	765.526291	-291.837399	201.963635	427.136453	-382.438550	146.377135	389.245120	-337.220062	319.039142	355.680025	-406.783282	303.359049	662.997806	-429.234325	296.027012	577.235311	-410.954761	243.694319	505.993655	-402.496386	324.148229	571.550572	-385.805800	390.765194	396.857647	-357.540654	-217.341025	831.268763	-214.411497	-103.853979	80.565807	-418.439250	-103.833866	80.722673	-18.325580	
251	1.2550	587.162189	1351.000557	-47.732072	621.937908	1324.093346	-371.237623	575.596358	1388.476304	-211.256588	574.459513	1243.818624	-201.544028	506.144601	1086.542551	12.852590	619.803077	906.057865	-49.277619	508.101074	1094.122842	-510.793352	624.766829	923.639642	-428.168385	51.457955	1181.265539	-211.200831	206.573390	1179.274977	-379.160250	242.122505	1158.817235	-100.031266	214.653429	1091.691978	-354.804912	234.621626	1077.726746	-107.645325	110.279880	1224.032262	-161.466518	105.373681	1240.292221	-273.226725	128.672357	1062.938495	-35.829618	82.513002	1064.701745	-412.814558	170.631753	920.843830	-16.268338	223.179925	850.957770	-34.962403	232.899195	766.436861	-43.506888	255.685070	867.237276	-44.180116	270.027567	670.293645	-61.255525	253.823475	663.526676	-178.008689	172.625405	609.121672	-27.748379	129.783415	531.959298	-38.644213	56.133496	486.455035	-41.195260	152.397213	513.191051	-63.926416	-17.260090	414.882862	-52.935519	13.662824	410.829298	-132.864513	-62.678907	436.389570	-104.344777	86.121834	244.681690	-100.882946	12.046478	287.376361	-40.076690	160.106912	956.086434	-433.014393	237.747926	917.554117	-426.292497	261.599294	944.390574	-419.669364	285.883244	842.736326	-421.197873	369.988526	762.411341	-407.587552	381.171144	760.675551	-290.442133	202.590865	421.546621	-382.513783	147.097109	383.818158	-337.870358	319.958596	350.282946	-406.748479	301.622042	658.281460	-428.613068	295.343777	572.049920	-410.052912	243.576456	500.091628	-402.057075	323.471410	566.706283	-384.891607	391.610648	391.534863	-357.491273	-217.319444	831.270463	-214.434288	-103.842887	80.577651	-418.450362	-103.828942	80.731073	-18.318359	
252	1.2600	588.207563	1350.999036	-47.988090	622.177636	1324.998264	-371.867674	576.204846	1389.125130	-211.566069	575.082158	1244.479883	-202.176324	506.573369	1086.612439	12.476990	619.732949	905.927600	-49.639257	508.283941	1094.309418	-510.617801	624.754097	923.523249	-428.267012	52.246922	1181.162845	-212.082552	207.802409	1179.015221	-379.790682	242.563131	1159.278051	-100.427087	216.035110	1091.382375	-355.251312	235.419828	1078.330122	-107.848922	110.993286	1224.078193	-162.564910	106.324272	1240.170872	-274.180637	129.123049	1063.505668	-36.412512	83.679610	1063.834895	-413.220009	172.855573	921.897498	-16.698144	226.138185	852.539175	-35.244824	236.639723	768.048112	-43.432937	258.450871	869.063049	-44.269813	274.463240	672.142959	-60.994966	258.192982	665.667655	-177.438754	176.171693	612.192172	-27.667668	132.287208	535.710916	-38.634308	57.951768	491.241099	-41.306684	154.591440	516.418691	-63.972961	-16.359380	420.444572	-53.053312	13.982182	415.815070	-133.243133	-61.696839	442.514182	-104.391273	85.114607	249.130214	-100.875912	11.495795	292.710726	-40.170937	160.608115	954.288310	-432.865288	237.653143	914.707133	-425.698026	261.829773	941.234104	-419.166580	284.788802	839.341483	-420.051710	367.933044	757.977093	-405.899140	378.206819	755.885858	-289.023194	203.132916	415.751552	-382.333884	147.851145	377.898635	-337.919416	320.833446	344.816874	-406.770780	300.039995	653.312917	-427.635190	294.560874	566.968799	-409.123845	243.574638	494.647405	-401.515666	322.670636	561.870746	-383.850816	392.372130	386.257490	-357.441257	-217.305925	831.261989	-214.431177	-103.831850	80.594825	-418.450419	-103.814087	80.747261	-18.323583	
253	1.2650	589.152288	1350.974779	-48.214055	622.362869	1325.916854	-372.458043	576.744898	1389.824191	-211.854924	575.659849	1245.221555	-202.660361	507.019453	1086.680890	12.071152	619.683574	905.755016	-49.948496	508.392326	1094.392948	-510.409056	624.711905	923.432706	-428.335570	53.053703	1180.931389	-213.036407	209.061537	1178.532949	-380.494399	243.031941	1159.777968	-100.810422	217.485185	1090.902173	-355.837895	236.062482	1078.677598	-108.263768	111.688789	1224.026015	-163.493144	107.215793	1239.710364	-275.229404	130.018184	1064.086081	-36.858326	85.193675	1062.835284	-413.925403	175.112931	923.019882	-17.130948	228.937067	854.087296	-35.157322	240.345307	769.625565	-43.235344	261.106774	870.875629	-44.362674	278.866372	674.010762	-60.696211	262.125601	667.712929	-177.185933	179.436706	615.247995	-27.556796	134.890767	539.287297	-38.487130	59.840442	496.057620	-41.269343	156.840717	519.677739	-63.948263	-15.482746	425.876906	-53.234234	14.179645	421.275095	-133.499559	-60.409944	448.610469	-104.043615	84.367152	253.649883	-100.791618	11.100654	297.885101	-40.211318	161.027908	952.438486	-432.756774	237.609984	911.817075	-425.177521	262.099269	938.188887	-418.668578	283.631487	836.015576	-418.936396	365.777876	753.678937	-404.275208	375.284947	751.289371	-287.733329	203.552287	410.102402	-382.109524	148.983172	371.770580	-337.049378	321.501802	339.389366	-406.707257	298.338755	648.425387	-426.571954	293.691486	562.029822	-408.157628	243.513129	489.026068	-400.931437	321.742507	557.137098	-382.862890	393.059040	380.930291	-357.348697	-217.287727	831.264459	-214.441564	-103.814578	80.588955	-418.444091	-103.825372	80.739004	-18.309640	
